HIERARCHY
ROOT Root
{
	OFFSET 0.00000 0.00000 0.00000
	CHANNELS 6 Xposition Yposition Zposition Zrotation Xrotation Yrotation
	JOINT Hips
	{
		OFFSET 0 0 0	
		CHANNELS 3 Zrotation Xrotation Yrotation
		JOINT Spine
		{
			OFFSET 0 4 0	
			CHANNELS 3 Zrotation Xrotation Yrotation
			JOINT Spine1
			{
				OFFSET 0 19.4 0	
				CHANNELS 3 Zrotation Xrotation Yrotation
				JOINT Spine2
				{
					OFFSET 0 16.6 0	
					CHANNELS 3 Zrotation Xrotation Yrotation
					JOINT LeftCollar
					{
						OFFSET 0 10 0	
						CHANNELS 3 Zrotation Xrotation Yrotation
						JOINT LeftArm
						{
							OFFSET 15.6 -2 3	
							CHANNELS 3 Zrotation Xrotation Yrotation
							JOINT LeftForeArm
							{
								OFFSET 3.5 -27 -1	
								CHANNELS 3 Zrotation Xrotation Yrotation
								JOINT LeftHand
								{
									OFFSET 1 -27 1	
									CHANNELS 3 Zrotation Xrotation Yrotation
									End Site
									{
										OFFSET 0 -15 0
									}
								}
							}
						}
					}
					JOINT RightCollar
					{
						OFFSET 0 10 0	
						CHANNELS 3 Zrotation Xrotation Yrotation
						JOINT RightArm
						{
							OFFSET -15.6 -2 3	
							CHANNELS 3 Zrotation Xrotation Yrotation
							JOINT RightForeArm
							{
								OFFSET -3.5 -27 -1	
								CHANNELS 3 Zrotation Xrotation Yrotation
								JOINT RightHand
								{
									OFFSET -1 -27 1	
									CHANNELS 3 Zrotation Xrotation Yrotation
									End Site
									{
										OFFSET 0 -15 0
									}
								}
							}
						}
					}
					JOINT Neck
					{
						OFFSET 0 10 0	
						CHANNELS 3 Zrotation Xrotation Yrotation
						JOINT Head
						{
							OFFSET 0 12.7 3	
							CHANNELS 3 Zrotation Xrotation Yrotation
							End Site
							{
								OFFSET 0 12.7 3
							}
						}
					}
				}
			}
		}
	}
	JOINT LeftHip
	{
		OFFSET 0 0 0	
		CHANNELS 3 Zrotation Xrotation Yrotation
		JOINT LeftUpLeg
		{
			OFFSET 8.8 -6 0	
			CHANNELS 3 Zrotation Xrotation Yrotation
			JOINT LeftLeg
			{
				OFFSET 0 -39 2	
				CHANNELS 3 Zrotation Xrotation Yrotation
				JOINT LeftFoot
				{
					OFFSET 0 -43 -2	
					CHANNELS 3 Zrotation Xrotation Yrotation
					JOINT LeftFootFront
					{
						OFFSET 0 -7 8.5	
						CHANNELS 3 Zrotation Xrotation Yrotation
						End Site
						{
							OFFSET 0 -0.5 9
						}
					}
				}
				JOINT LeftHeel
				{
					OFFSET 0 -43 -2	
					CHANNELS 3 Zrotation Xrotation Yrotation
					End Site
					{
						OFFSET 0 -7.5 -5
					}
				}
			}
		}
	}
	JOINT RightHip
	{
		OFFSET 0 0 0	
		CHANNELS 3 Zrotation Xrotation Yrotation
		JOINT RightUpLeg
		{
			OFFSET -8.8 -6 0	
			CHANNELS 3 Zrotation Xrotation Yrotation
			JOINT RightLeg
			{
				OFFSET 0 -39 2	
				CHANNELS 3 Zrotation Xrotation Yrotation
				JOINT RightFoot
				{
					OFFSET 0 -43 -2	
					CHANNELS 3 Zrotation Xrotation Yrotation
					JOINT RightFootFront
					{
						OFFSET 0 -7 8.5	
						CHANNELS 3 Zrotation Xrotation Yrotation
						End Site
						{
							OFFSET 0 -0.5 9
						}
					}
				}
				JOINT RightHeel
				{
					OFFSET 0 -43 -2	
					CHANNELS 3 Zrotation Xrotation Yrotation
					End Site
					{
						OFFSET 0 -7.5 -5
					}
				}
			}
		}
	}
}
MOTION
Frames: 21
Frame Time: 0.05
0 95.5 0 -0 0 -0 -0 0 -0 -0 0 -0 10.755 27.964 -26.927 -0 0 -0 -0 0 -0 47.906 -53.772 45.396 -115.9 -66.802 -122.55 -0 0 -0 -0 0 -0 -170.45 -81.444 -144.76 -22.071 -20.621 49.641 -0 0 -0 -5.0143 -29.599 2.6358 -5.0143 -29.599 2.6358 -0 0 -0 -0 0 -0 -0 0 -0 -0 0 -0 -0 0 -0 -0 0 -0 -0 0 -0 -0 0 -0 -0 0 -0 -0 0 -0 -0 0 -0 -0 0 -0 
0 95.5 0 -0 0 -0 -0 0 -0 -0 0 -0 10.521 27.838 -27.005 -0 0 -0 -0 0 -0 47.68 -53.54 45.398 -117.69 -66.795 -125.12 -0 0 -0 -0 0 -0 -166.9 -81.323 -141.21 -21.494 -20.178 50.814 -0 0 -0 -5.6696 -29.189 2.6764 -5.6696 -29.189 2.6764 -0 0 -0 -0 0 -0 -0 0 -0 -0 0 -0 -0 0 -0 -0 0 -0 -0 0 -0 -0 0 -0 -0 0 -0 -0 0 -0 -0 0 -0 -0 0 -0 
0 95.5 0 -0 0 -0 -0 0 -0 -0 0 -0 10.257 27.855 -26.947 -0 0 -0 -0 0 -0 47.704 -53.259 45.515 -119.35 -66.732 -127.19 -0 0 -0 -0 0 -0 -163.45 -81.194 -137.71 -21.347 -19.543 51.288 -0 0 -0 -6.4174 -28.878 2.7527 -6.4174 -28.877 2.7527 -0 0 -0 -0 0 -0 -0 0 -0 -0 0 -0 -0 0 -0 -0 0 -0 -0 0 -0 -0 0 -0 -0 0 -0 -0 0 -0 -0 0 -0 -0 0 -0 
0 95.5 0 -0 0 -0 -0 0 -0 -0 0 -0 10.084 27.853 -26.82 -0 0 -0 -0 0 -0 47.793 -52.969 45.731 -120.57 -66.705 -128.55 -0 0 -0 -0 0 -0 -159.91 -81.032 -134.34 -21.151 -18.913 51.62 -0 0 -0 -7.2186 -28.67 3.0654 -7.2186 -28.67 3.0654 -0 0 -0 -0 0 -0 -0 0 -0 -0 0 -0 -0 0 -0 -0 0 -0 -0 0 -0 -0 0 -0 -0 0 -0 -0 0 -0 -0 0 -0 -0 0 -0 
0 95.5 0 -0 0 -0 -0 0 -0 -0 0 -0 9.8902 27.615 -26.753 -0 0 -0 -0 0 -0 47.803 -52.64 46.052 -121.26 -66.598 -129.62 -0 0 -0 -0 0 -0 -156.72 -81.089 -130.81 -21.009 -18.088 51.237 -0 0 -0 -7.9486 -28.145 3.397 -7.9486 -28.145 3.397 -0 0 -0 -0 0 -0 -0 0 -0 -0 0 -0 -0 0 -0 -0 0 -0 -0 0 -0 -0 0 -0 -0 0 -0 -0 0 -0 -0 0 -0 -0 0 -0 
0 95.5 0 -0 0 -0 -0 0 -0 -0 0 -0 9.5911 27.386 -26.656 -0 0 -0 -0 0 -0 47.454 -52.282 46.208 -122.06 -66.38 -130.67 -0 0 -0 -0 0 -0 -153.01 -81.055 -126.93 -20.757 -17.469 50.781 -0 0 -0 -8.552 -27.501 3.5145 -8.552 -27.501 3.5145 -0 0 -0 -0 0 -0 -0 0 -0 -0 0 -0 -0 0 -0 -0 0 -0 -0 0 -0 -0 0 -0 -0 0 -0 -0 0 -0 -0 0 -0 -0 0 -0 
0 95.5 0 -0 0 -0 -0 0 -0 -0 0 -0 9.3476 27.402 -26.692 -0 0 -0 -0 0 -0 47.197 -52.087 46.619 -122.76 -66.228 -131.33 -0 0 -0 -0 0 -0 -153.08 -80.928 -127.26 -20.74 -16.954 50.214 -0 0 -0 -8.9112 -27.097 3.4235 -8.9112 -27.097 3.4235 -0 0 -0 -0 0 -0 -0 0 -0 -0 0 -0 -0 0 -0 -0 0 -0 -0 0 -0 -0 0 -0 -0 0 -0 -0 0 -0 -0 0 -0 -0 0 -0 
0 95.5 0 -0 0 -0 -0 0 -0 -0 0 -0 8.9713 27.507 -26.559 -0 0 -0 -0 0 -0 46.86 -52.062 46.534 -123.59 -66.29 -132.15 -0 0 -0 -0 0 -0 -153.18 -80.791 -127.46 -20.943 -16.527 49.343 -0 0 -0 -9.0589 -26.891 3.173 -9.0589 -26.891 3.173 -0 0 -0 -0 0 -0 -0 0 -0 -0 0 -0 -0 0 -0 -0 0 -0 -0 0 -0 -0 0 -0 -0 0 -0 -0 0 -0 -0 0 -0 -0 0 -0 
0 95.5 0 -0 0 -0 -0 0 -0 -0 0 -0 8.7085 27.768 -26.517 -0 0 -0 -0 0 -0 46.732 -52.174 46.512 -124.18 -66.424 -132.77 -0 0 -0 -0 0 -0 -154.6 -80.571 -129.07 -21.179 -16.188 48.891 -0 0 -0 -9.0174 -26.957 2.9603 -9.0174 -26.957 2.9603 -0 0 -0 -0 0 -0 -0 0 -0 -0 0 -0 -0 0 -0 -0 0 -0 -0 0 -0 -0 0 -0 -0 0 -0 -0 0 -0 -0 0 -0 -0 0 -0 
0 95.5 0 -0 0 -0 -0 0 -0 -0 0 -0 8.5411 27.904 -26.543 -0 0 -0 -0 0 -0 46.63 -52.233 46.533 -124.27 -66.485 -132.99 -0 0 -0 -0 0 -0 -156.63 -80.508 -131.16 -21.454 -15.962 48.889 -0 0 -0 -8.8563 -27.079 2.8939 -8.8563 -27.079 2.8939 -0 0 -0 -0 0 -0 -0 0 -0 -0 0 -0 -0 0 -0 -0 0 -0 -0 0 -0 -0 0 -0 -0 0 -0 -0 0 -0 -0 0 -0 -0 0 -0 
0 95.5 0 -0 0 -0 -0 0 -0 -0 0 -0 8.3782 28.093 -26.566 -0 0 -0 -0 0 -0 46.513 -52.269 46.54 -124.26 -66.431 -133.09 -0 0 -0 -0 0 -0 -160.52 -80.585 -135.02 -22.033 -15.767 49.292 -0 0 -0 -8.6419 -27.244 2.8738 -8.6419 -27.244 2.8738 -0 0 -0 -0 0 -0 -0 0 -0 -0 0 -0 -0 0 -0 -0 0 -0 -0 0 -0 -0 0 -0 -0 0 -0 -0 0 -0 -0 0 -0 -0 0 -0 
0 95.5 0 -0 0 -0 -0 0 -0 -0 0 -0 8.2403 28.457 -26.533 -0 0 -0 -0 0 -0 47.047 -52.411 47.316 -124.04 -66.354 -132.64 -0 0 -0 -0 0 -0 -166.93 -80.597 -141.53 -23.062 -15.557 50.732 -0 0 -0 -8.3924 -27.514 2.804 -8.3924 -27.514 2.804 -0 0 -0 -0 0 -0 -0 0 -0 -0 0 -0 -0 0 -0 -0 0 -0 -0 0 -0 -0 0 -0 -0 0 -0 -0 0 -0 -0 0 -0 -0 0 -0 
0 95.5 0 -0 0 -0 -0 0 -0 -0 0 -0 8.1816 28.673 -26.391 -0 0 -0 -0 0 -0 47.326 -52.725 47.468 -124.13 -66.539 -132.82 -0 0 -0 -0 0 -0 -174.63 -80.647 -149.46 -24.57 -15.188 52.802 -0 0 -0 -8.0754 -27.785 2.6845 -8.0754 -27.785 2.6845 -0 0 -0 -0 0 -0 -0 0 -0 -0 0 -0 -0 0 -0 -0 0 -0 -0 0 -0 -0 0 -0 -0 0 -0 -0 0 -0 -0 0 -0 -0 0 -0 
0 95.5 0 -0 0 -0 -0 0 -0 -0 0 -0 8.4661 28.958 -26.442 -0 0 -0 -0 0 -0 47.317 -52.971 47.76 -125.1 -66.547 -133.85 -0 0 -0 -0 0 -0 175.01 -80.496 -159.5 -26.781 -14.29 53.484 -0 0 -0 -7.6518 -28.25 2.5593 -7.6518 -28.25 2.5593 -0 0 -0 -0 0 -0 -0 0 -0 -0 0 -0 -0 0 -0 -0 0 -0 -0 0 -0 -0 0 -0 -0 0 -0 -0 0 -0 -0 0 -0 -0 0 -0 
0 95.5 0 -0 0 -0 -0 0 -0 -0 0 -0 8.7197 29.309 -26.296 -0 0 -0 -0 0 -0 47.386 -53.444 48.499 -125.51 -66.548 -134.33 -0 0 -0 -0 0 -0 164.8 -80.074 -169.22 -29.46 -12.863 52.907 -0 0 -0 -7.2023 -28.774 2.3164 -7.2023 -28.774 2.3164 -0 0 -0 -0 0 -0 -0 0 -0 -0 0 -0 -0 0 -0 -0 0 -0 -0 0 -0 -0 0 -0 -0 0 -0 -0 0 -0 -0 0 -0 -0 0 -0 
0 95.5 0 -0 0 -0 -0 0 -0 -0 0 -0 8.9067 29.598 -25.903 -0 0 -0 -0 0 -0 47.344 -53.865 49.152 -125.9 -66.563 -134.44 -0 0 -0 -0 0 -0 156.07 -79.581 -177.66 -32.438 -11.385 52.148 -0 0 -0 -6.8476 -29.217 1.9697 -6.8476 -29.217 1.9697 -0 0 -0 -0 0 -0 -0 0 -0 -0 0 -0 -0 0 -0 -0 0 -0 -0 0 -0 -0 0 -0 -0 0 -0 -0 0 -0 -0 0 -0 -0 0 -0 
0 95.5 0 -0 0 -0 -0 0 -0 -0 0 -0 9.1066 29.985 -25.476 -0 0 -0 -0 0 -0 47.416 -54.238 49.637 -127.1 -66.744 -135.55 -0 0 -0 -0 0 -0 149.17 -78.923 175.9 -35.524 -9.9322 51.657 -0 0 -0 -6.5552 -29.724 1.5965 -6.5552 -29.724 1.5965 -0 0 -0 -0 0 -0 -0 0 -0 -0 0 -0 -0 0 -0 -0 0 -0 -0 0 -0 -0 0 -0 -0 0 -0 -0 0 -0 -0 0 -0 -0 0 -0 
0 95.5 0 -0 0 -0 -0 0 -0 -0 0 -0 9.1989 30.49 -24.835 -0 0 -0 -0 0 -0 47.498 -54.737 50.12 -128.01 -66.812 -136.34 -0 0 -0 -0 0 -0 145.01 -78.136 171.56 -38.309 -8.8219 51.679 -0 0 -0 -6.2952 -30.39 0.98496 -6.2952 -30.39 0.98495 -0 0 -0 -0 0 -0 -0 0 -0 -0 0 -0 -0 0 -0 -0 0 -0 -0 0 -0 -0 0 -0 -0 0 -0 -0 0 -0 -0 0 -0 -0 0 -0 
0 95.5 0 -0 0 -0 -0 0 -0 -0 0 -0 9.2829 31.211 -24.353 -0 0 -0 -0 0 -0 47.899 -55.224 50.942 -128.99 -66.674 -137.16 -0 0 -0 -0 0 -0 142.81 -77.16 168.22 -40.179 -8.7022 51.661 -0 0 -0 -6.0963 -31.361 0.077904 -6.0963 -31.361 0.077903 -0 0 -0 -0 0 -0 -0 0 -0 -0 0 -0 -0 0 -0 -0 0 -0 -0 0 -0 -0 0 -0 -0 0 -0 -0 0 -0 -0 0 -0 -0 0 -0 
0 95.5 0 -0 0 -0 -0 0 -0 -0 0 -0 9.4616 31.702 -23.981 -0 0 -0 -0 0 -0 47.849 -55.624 51.206 -130.39 -66.576 -138.51 -0 0 -0 -0 0 -0 141.53 -76.47 166.67 -41.05 -8.905 50.248 -0 0 -0 -6.1343 -32.425 -1.2663 -6.1342 -32.425 -1.2663 -0 0 -0 -0 0 -0 -0 0 -0 -0 0 -0 -0 0 -0 -0 0 -0 -0 0 -0 -0 0 -0 -0 0 -0 -0 0 -0 -0 0 -0 -0 0 -0 
0 95.5 0 -0 0 -0 -0 0 -0 -0 0 -0 9.5222 32.286 -23.508 -0 0 -0 -0 0 -0 47.608 -56.088 51.137 -132.04 -66.297 -140.09 -0 0 -0 -0 0 -0 140.71 -75.719 166.34 -41.448 -9.0878 47.829 -0 0 -0 -6.33 -33.97 -3.9542 -6.3299 -33.97 -3.9542 -0 0 -0 -0 0 -0 -0 0 -0 -0 0 -0 -0 0 -0 -0 0 -0 -0 0 -0 -0 0 -0 -0 0 -0 -0 0 -0 -0 0 -0 -0 0 -0 
